<svg width="40" height="40" viewBox="0 0 40 40" fill="none" xmlns="http://www.w3.org/2000/svg">
<rect width="40" height="40" rx="20" fill="#F76B12"/>
<g clip-path="url(#clip0_38_294)">
<path d="M20.4762 17.619C20.2063 17.619 19.9803 17.5276 19.7981 17.3448C19.6152 17.1625 19.5238 16.9365 19.5238 16.6667V14.7619H17.619C17.3492 14.7619 17.1232 14.6708 16.941 14.4886C16.7581 14.3057 16.6667 14.0794 16.6667 13.8095C16.6667 13.5397 16.7581 13.3133 16.941 13.1305C17.1232 12.9483 17.3492 12.8571 17.619 12.8571H19.5238V10.9524C19.5238 10.6825 19.6152 10.4562 19.7981 10.2733C19.9803 10.0911 20.2063 10 20.4762 10C20.746 10 20.9724 10.0911 21.1552 10.2733C21.3375 10.4562 21.4286 10.6825 21.4286 10.9524V12.8571H23.3333C23.6032 12.8571 23.8295 12.9483 24.0124 13.1305C24.1946 13.3133 24.2857 13.5397 24.2857 13.8095C24.2857 14.0794 24.1946 14.3057 24.0124 14.4886C23.8295 14.6708 23.6032 14.7619 23.3333 14.7619H21.4286V16.6667C21.4286 16.9365 21.3375 17.1625 21.1552 17.3448C20.9724 17.5276 20.746 17.619 20.4762 17.619ZM15.7143 30C15.1905 30 14.7422 29.8137 14.3695 29.441C13.9962 29.0676 13.8095 28.619 13.8095 28.0952C13.8095 27.5714 13.9962 27.1229 14.3695 26.7495C14.7422 26.3768 15.1905 26.1905 15.7143 26.1905C16.2381 26.1905 16.6863 26.3768 17.059 26.7495C17.4324 27.1229 17.619 27.5714 17.619 28.0952C17.619 28.619 17.4324 29.0676 17.059 29.441C16.6863 29.8137 16.2381 30 15.7143 30ZM25.2381 30C24.7143 30 24.266 29.8137 23.8933 29.441C23.52 29.0676 23.3333 28.619 23.3333 28.0952C23.3333 27.5714 23.52 27.1229 23.8933 26.7495C24.266 26.3768 24.7143 26.1905 25.2381 26.1905C25.7619 26.1905 26.2105 26.3768 26.5838 26.7495C26.9565 27.1229 27.1429 27.5714 27.1429 28.0952C27.1429 28.619 26.9565 29.0676 26.5838 29.441C26.2105 29.8137 25.7619 30 25.2381 30ZM15.7143 25.2381C14.9841 25.2381 14.4327 24.9244 14.06 24.2971C13.6867 23.6705 13.6825 23.0476 14.0476 22.4286L15.3333 20.0952L11.9048 12.8571H10.9524C10.6825 12.8571 10.4565 12.7657 10.2743 12.5829C10.0914 12.4006 10 12.1746 10 11.9048C10 11.6349 10.0914 11.4086 10.2743 11.2257C10.4565 11.0435 10.6825 10.9524 10.9524 10.9524H12.5238C12.6984 10.9524 12.8651 11 13.0238 11.0952C13.1825 11.1905 13.3016 11.3254 13.381 11.5L17.1667 19.5238H23.8571L27.2857 13.3333C27.3651 13.1905 27.4762 13.0752 27.619 12.9876C27.7619 12.9006 27.9206 12.8571 28.0952 12.8571C28.4603 12.8571 28.7343 13.0117 28.9171 13.321C29.0994 13.6308 29.1032 13.9444 28.9286 14.2619L25.5238 20.4286C25.3492 20.746 25.1149 20.9921 24.821 21.1667C24.5276 21.3413 24.2063 21.4286 23.8571 21.4286H16.7619L15.7143 23.3333H26.1905C26.4603 23.3333 26.6863 23.4244 26.8686 23.6067C27.0514 23.7895 27.1429 24.0159 27.1429 24.2857C27.1429 24.5556 27.0514 24.7816 26.8686 24.9638C26.6863 25.1467 26.4603 25.2381 26.1905 25.2381H15.7143Z" fill="#1E1E1E"/>
</g>
<defs>
<clipPath id="clip0_38_294">
<rect width="20" height="20" fill="white" transform="translate(10 10)"/>
</clipPath>
</defs>
</svg>
