<svg width="35" height="27" viewBox="0 0 35 27" fill="none" xmlns="http://www.w3.org/2000/svg">
<path d="M34.5564 4.89999C34.2091 4.50181 33.7091 4.27272 33.1818 4.27272H8.05636L7.70182 2.15635C7.55636 1.27999 6.79818 0.636353 5.90909 0.636353H1.81818C0.812727 0.636353 0 1.44908 0 2.45453C0 3.45999 0.812727 4.27272 1.81818 4.27272H4.36909L7.75091 24.5709C7.76545 24.6527 7.80727 24.72 7.83273 24.7964C7.86182 24.8927 7.88545 24.9836 7.93091 25.0709C7.98909 25.1909 8.06727 25.2927 8.14909 25.3964C8.20545 25.4673 8.25636 25.5382 8.32182 25.6C8.42727 25.6982 8.54909 25.7673 8.67273 25.8364C8.74182 25.8745 8.80182 25.9254 8.87636 25.9545C9.08727 26.04 9.30909 26.0909 9.54364 26.0909H29.5455C30.5509 26.0909 31.3636 25.2782 31.3636 24.2727C31.3636 23.2673 30.5509 22.4545 29.5455 22.4545H11.0855L10.7836 20.6364H31.3636C32.2691 20.6364 33.0364 19.9709 33.1636 19.0764L34.9818 6.34908C35.0564 5.82544 34.9 5.29635 34.5564 4.89999ZM31.0855 7.90908L30.5673 11.5454H24.0909V7.90908H31.0855ZM22.2727 7.90908V11.5454H16.8182V7.90908H22.2727ZM22.2727 13.3636V17H16.8182V13.3636H22.2727ZM15 7.90908V11.5454H9.54545C9.44909 11.5454 9.36182 11.5727 9.27636 11.6L8.66182 7.90908H15ZM9.57091 13.3636H15V17H10.1764L9.57091 13.3636ZM24.0909 17V13.3636H30.3055L29.7873 17H24.0909Z" fill="#030104"/>
</svg>
